<svg width="20" height="20" viewBox="0 0 20 20" fill="none" xmlns="http://www.w3.org/2000/svg">
<path d="M18.7672 0H11.8904C11.2107 0 10.6577 0.553038 10.6577 1.23273C10.6577 1.91242 11.2107 2.46546 11.8904 2.46546H15.7912L9.28425 8.97245C9.0513 9.20526 8.9231 9.51478 8.9231 9.84416C8.9231 10.1735 9.05123 10.483 9.28411 10.7156C9.51698 10.9487 9.82643 11.077 10.1558 11.077C10.4851 11.077 10.7946 10.9488 11.0276 10.7158L17.5345 4.20875V8.10961C17.5345 8.7893 18.0876 9.34234 18.7672 9.34234C19.4469 9.34234 20 8.7893 20 8.10961V1.23273C20 0.553038 19.4469 0 18.7672 0Z" fill="#719FA9"/>
<path d="M14.1683 17.8867H2.11324V5.83152H11.1798L13.293 3.71826H1.05662C0.473083 3.71826 0 4.19135 0 4.77489V18.9434C0 19.5269 0.473083 20 1.05662 20H15.225C15.8085 20 16.2816 19.5269 16.2816 18.9434V6.70683L14.1683 8.82009V17.8867Z" fill="#719FA9"/>
</svg>
