<svg width="20" height="20" viewBox="0 0 20 20" fill="none" xmlns="http://www.w3.org/2000/svg">
<g clip-path="url(#clip0)">
<path d="M19.9929 5.88006C19.946 4.81738 19.7742 4.0868 19.528 3.45374C19.2741 2.78176 18.8834 2.18014 18.3715 1.68002C17.8713 1.1721 17.2658 0.777435 16.6016 0.527447C15.9648 0.281274 15.2381 0.109427 14.1754 0.0625732C13.1048 0.0117516 12.7649 0 10.0495 0C7.33418 0 6.9943 0.0117516 5.92765 0.0586052C4.86498 0.105459 4.1344 0.277459 3.50149 0.523479C2.82937 0.777435 2.22775 1.16814 1.72762 1.68002C1.21971 2.18014 0.825193 2.78573 0.575053 3.44992C0.328881 4.0868 0.157034 4.81341 0.110181 5.87609C0.059359 6.9467 0.0476074 7.28658 0.0476074 10.002C0.0476074 12.7173 0.059359 13.0572 0.106213 14.1239C0.153066 15.1865 0.325066 15.9171 0.571238 16.5502C0.825193 17.2221 1.21971 17.8238 1.72762 18.3239C2.22775 18.8318 2.83333 19.2265 3.49753 19.4765C4.1344 19.7226 4.86101 19.8945 5.92384 19.9413C6.99033 19.9883 7.33036 19.9999 10.0457 19.9999C12.7611 19.9999 13.101 19.9883 14.1676 19.9413C15.2303 19.8945 15.9609 19.7226 16.5938 19.4765C17.9379 18.9568 19.0006 17.8941 19.5202 16.5502C19.7662 15.9133 19.9382 15.1865 19.9851 14.1239C20.032 13.0572 20.0437 12.7173 20.0437 10.002C20.0437 7.28658 20.0397 6.9467 19.9929 5.88006ZM18.1918 14.0457C18.1488 15.0225 17.9847 15.5499 17.848 15.9015C17.5119 16.7728 16.8204 17.4644 15.9491 17.8004C15.5975 17.9372 15.0662 18.1012 14.0933 18.1441C13.0384 18.1911 12.722 18.2027 10.0535 18.2027C7.385 18.2027 7.06465 18.1911 6.01358 18.1441C5.03683 18.1012 4.50938 17.9372 4.15775 17.8004C3.72416 17.6402 3.32949 17.3862 3.00915 17.0541C2.67705 16.7298 2.4231 16.3391 2.26285 15.9055C2.12611 15.5539 1.96204 15.0225 1.91916 14.0497C1.87215 12.9948 1.86055 12.6783 1.86055 10.0097C1.86055 7.34122 1.87215 7.02087 1.91916 5.96995C1.96204 4.99319 2.12611 4.46575 2.26285 4.11412C2.4231 3.68038 2.67705 3.28586 3.01312 2.96536C3.33728 2.63327 3.72798 2.37931 4.16172 2.21921C4.51335 2.08247 5.04476 1.9184 6.01755 1.87537C7.07244 1.82851 7.38897 1.81676 10.0573 1.81676C12.7298 1.81676 13.0462 1.82851 14.0973 1.87537C15.074 1.9184 15.6015 2.08247 15.9531 2.21921C16.3867 2.37931 16.7814 2.63327 17.1017 2.96536C17.4338 3.28967 17.6877 3.68038 17.848 4.11412C17.9847 4.46575 18.1488 4.99701 18.1918 5.96995C18.2387 7.02484 18.2504 7.34122 18.2504 10.0097C18.2504 12.6783 18.2387 12.9908 18.1918 14.0457Z" fill="black"/>
<path d="M10.0371 4.8642C7.20074 4.8642 4.89941 7.16537 4.89941 10.0019C4.89941 12.8385 7.20074 15.1397 10.0371 15.1397C12.8737 15.1397 15.1749 12.8385 15.1749 10.0019C15.1749 7.16537 12.8737 4.8642 10.0371 4.8642ZM10.0371 13.3346C8.19702 13.3346 6.70442 11.8422 6.70442 10.0019C6.70442 8.16166 8.19702 6.66921 10.0371 6.66921C11.8774 6.66921 13.3698 8.16166 13.3698 10.0019C13.3698 11.8422 11.8774 13.3346 10.0371 13.3346Z" fill="black"/>
<path d="M16.5776 4.66122C16.5776 5.32358 16.0405 5.86064 15.378 5.86064C14.7157 5.86064 14.1786 5.32358 14.1786 4.66122C14.1786 3.9987 14.7157 3.46179 15.378 3.46179C16.0405 3.46179 16.5776 3.9987 16.5776 4.66122Z" fill="black"/>
</g>
<defs>
<clipPath id="clip0">
<rect width="20" height="20" fill="white"/>
</clipPath>
</defs>
</svg>
