<svg width="120" height="78" viewBox="0 0 120 78" fill="none" xmlns="http://www.w3.org/2000/svg">
<path fill-rule="evenodd" clip-rule="evenodd" d="M109.09 0.163701C107.308 0.654376 104.065 3.00686 102.553 4.90496C100.969 6.89379 98.9954 10.7198 98.9951 11.8042C98.9947 12.1417 98.8252 12.5257 98.6185 12.6574C98.4113 12.7892 98.3405 13.1615 98.461 13.4845C98.5811 13.8075 98.5684 13.957 98.4321 13.817C98.2961 13.6765 97.5943 15.4258 96.8725 17.7039C95.1885 23.0182 93.5775 25.9521 90.6231 29.0841C87.8256 32.0503 85.1664 33.5848 82.7585 33.6222C80.5651 33.6563 79.6657 32.9834 77.8479 29.9483C77.0186 28.5641 75.8504 27.1334 75.2518 26.7694C72.406 25.0375 66.9158 26.8696 59.3616 32.0725C55.8753 34.4736 53.4219 35.6836 50.9411 36.2247C49.1081 36.625 48.6719 36.6156 47.9694 36.1619C46.8118 35.4139 46.6279 35.8139 47.7736 36.5873C49.1574 37.5214 51.1623 37.7033 52.2174 36.9912C52.7335 36.6428 53.3603 36.5013 53.733 36.6486C54.0909 36.7901 54.2819 36.7542 54.1695 36.5662C54.0599 36.3826 54.3907 36.2109 54.9044 36.1848C55.7206 36.143 60.0214 33.4944 62.7542 31.3506C64.4561 30.0158 68.9806 27.6713 69.106 28.0596C69.1818 28.2933 69.7722 28.1569 70.6262 27.7083C71.9614 27.0071 73.0091 26.9781 75.1433 27.5838C75.4917 27.6825 76.6212 29.1121 77.6538 30.7609C79.201 33.2317 79.7873 33.8639 80.9911 34.3604C84.2751 35.7141 86.7821 34.6743 91.9418 29.8191C92.9451 28.8747 93.2963 28.2937 93.1484 27.823C93.0082 27.378 93.0427 27.3065 93.2537 27.6063C93.476 27.9228 93.9534 27.4506 94.8869 25.9906C96.1122 24.0736 96.6667 22.6397 98.5758 16.4529C99.8814 12.2215 100.388 11.0173 101.895 8.55962C103.543 5.8707 106.357 2.79999 107.978 1.91953C108.559 1.60415 109.004 1.17917 108.967 0.975565C108.887 0.543321 109.93 0.458033 110.444 0.854711C110.638 1.00387 111.322 1.24195 111.964 1.38349C114.257 1.88869 116.643 5.81626 117.177 9.96595C117.371 11.4739 117.318 11.7349 116.813 11.7349C116.467 11.7349 116.062 11.2656 115.839 10.6069C115.177 8.65253 112.03 7.91434 112.03 9.71372C112.03 9.95071 111.825 10.4327 111.575 10.7851C111.184 11.3353 110.986 11.3625 110.168 10.9785C109.644 10.7325 108.905 9.991 108.527 9.33011C107.791 8.04463 106.294 7.4008 105.396 7.98366C105.102 8.17492 104.469 9.05646 103.989 9.94236C103.223 11.3589 103.148 11.8082 103.374 13.6609C103.584 15.3921 103.78 15.8392 104.467 16.1615C106.105 16.9305 108.457 15.3587 109.217 12.9877C109.742 11.3476 110.62 11.6899 110.62 13.5346C110.62 15.4998 111.949 17.3838 113.263 17.2833C114.524 17.1864 115.121 16.5777 115.717 14.7823C116.017 13.8805 116.435 13.3288 116.87 13.2599C117.512 13.1579 117.543 13.3401 117.383 16.3447C117.289 18.1009 117.196 20.191 117.176 20.9895C117.155 21.7879 117.02 22.5319 116.875 22.6429C116.731 22.754 116.572 23.6758 116.523 24.6917C116.474 25.7075 116.315 26.4645 116.169 26.3738C116.024 26.2831 115.905 26.5506 115.905 26.9679C115.905 27.3849 115.577 28.7299 115.176 29.9563C114.775 31.1826 114.383 32.6063 114.305 33.1202C114.228 33.6341 113.839 35.0299 113.442 36.2222C113.044 37.414 112.789 38.5783 112.875 38.8091C112.961 39.0399 112.886 39.3785 112.708 39.5618C112.362 39.9182 112.044 43.1693 111.997 46.8283C111.949 50.6049 113.339 54.3445 117.024 60.3509C118.267 62.376 118.464 62.9763 118.475 64.7782C118.485 66.4212 118.297 67.1601 117.588 68.2645C115.999 70.7385 112.259 74.3551 109.268 76.3113C107.696 77.3391 107.485 77.5971 107.979 77.882C108.42 78.1364 108.809 77.9931 109.508 77.3184C110.023 76.8204 111.395 75.8028 112.558 75.0566C114.83 73.598 118.093 70.2907 118.975 68.5512C119.274 67.9625 119.527 66.6302 119.538 65.5905C119.557 63.6314 119.297 63.0587 115.486 56.6745C113.513 53.37 112.906 50.9638 112.937 46.5757C112.97 42.0413 113.573 39.0178 116.518 28.6109C117.573 24.8829 118.028 21.8452 118.2 17.3631C118.287 15.1079 118.511 13.3201 118.715 13.2501C119.259 13.0628 119.147 12.2038 118.547 11.9664C118.256 11.8517 118.017 11.385 118.015 10.9295C118.003 8.41408 115.417 2.83447 113.513 1.21764C112.24 0.136481 110.604 -0.253301 109.09 0.163701ZM108.069 9.82949C108.586 10.6363 108.573 10.6461 106.964 10.6461C105.203 10.6461 105.148 10.5967 105.712 9.51157C106.193 8.58575 107.373 8.74507 108.069 9.82949ZM38.7524 9.92023C37.94 10.7571 37.9048 11.0141 38.4364 12.2165C38.6742 12.7543 39.3629 13.278 40.2123 13.5665C41.4302 13.981 41.6715 13.9643 42.189 13.4312C42.8323 12.7685 42.8334 12.7688 40.69 12.6839C39.7272 12.6458 39.6232 12.5184 39.5218 11.2493C39.4175 9.94055 39.4601 9.87232 40.2239 10.122C40.9482 10.359 40.9842 10.3227 40.5561 9.79102C39.9312 9.01545 39.6081 9.03868 38.7524 9.92023ZM35.3566 10.4653C35.2449 10.7651 35.2548 11.4264 35.3785 11.9345L35.6036 12.8581L34.1997 12.0259C33.0988 11.3734 32.7035 11.2885 32.3681 11.634C31.7516 12.2691 32.5481 14.8586 33.4331 15.097C34.0263 15.2567 34.0644 15.1525 33.7836 14.1432C33.2654 12.2825 33.351 12.0049 34.2606 12.5961C34.6964 12.8792 35.4102 13.2207 35.8459 13.3546C36.5615 13.5749 36.6386 13.4754 36.6386 12.3333C36.6386 10.2283 35.8646 9.1011 35.3566 10.4653ZM114.769 10.4853C115.937 11.328 115.729 11.573 113.967 11.4289C112.317 11.2935 112.094 11.0878 112.805 10.3557C113.367 9.77614 113.829 9.80663 114.769 10.4853ZM108.285 11.8256C108.597 13.0265 108.543 13.4428 108.154 12.8236C107.967 12.5242 107.811 12.4582 107.807 12.6763C107.794 13.6529 105.016 16.0025 104.501 15.4723C104.226 15.1888 104.206 12.657 104.477 12.3783C104.585 12.2662 105.073 12.5859 105.561 13.0882C106.568 14.1254 107.066 13.8765 107.25 12.2437C107.395 10.9669 107.377 11.009 107.761 11.009C107.932 11.009 108.168 11.3766 108.285 11.8256ZM29.1453 12.6795C28.7296 13.1078 30.4199 16.09 31.078 16.09C31.6632 16.09 31.6417 15.9339 30.8258 14.2753C29.9718 12.5391 29.6128 12.1983 29.1453 12.6795ZM113.24 12.9144C113.81 14.8829 113.802 14.8745 114.333 14.1313C114.604 13.7524 114.742 13.3034 114.64 13.1332C114.538 12.963 114.622 12.8236 114.827 12.8236C115.5 12.8236 115.218 14.1498 114.336 15.1297C113.349 16.2275 112.67 16.3353 111.878 15.5198C111.113 14.7312 111.154 12.9231 111.942 12.7108C112.99 12.4288 113.104 12.4466 113.24 12.9144ZM21.4484 15.6363C21.4251 15.7862 21.4234 16.025 21.4442 16.1676C21.4646 16.3103 21.2712 16.3436 21.0137 16.242C20.7565 16.14 20.3654 16.2812 20.1445 16.5552C19.8303 16.9454 20.0089 17.3522 20.9689 18.4319C21.6428 19.1901 22.1945 20.0317 22.1945 20.3024C22.1945 20.9902 23.8482 21.352 24.489 20.804C24.7772 20.5576 25.0129 20.4941 25.0129 20.6628C25.0129 20.8316 25.269 20.5928 25.5822 20.1322C26.4777 18.8152 25.6953 18.3611 24.1857 19.3222C23.509 19.7533 22.8681 19.9609 22.7621 19.7842C22.6557 19.6071 22.9573 19.2801 23.4318 19.0576C23.993 18.7938 24.2223 18.4584 24.0874 18.0969C23.8538 17.4694 23.052 17.3562 22.723 17.9046C22.3901 18.4595 21.49 18.3361 21.49 17.7358C21.49 17.4437 21.8109 17.0274 22.203 16.8111C22.8262 16.4678 22.8516 16.352 22.4042 15.8911C21.8387 15.3089 21.5118 15.2215 21.4484 15.6363ZM35.6617 15.927C31.5596 17.0648 25.3166 20.9031 20.7146 25.117C17.409 28.1434 13.0081 33.2364 13.2103 33.8014C13.303 34.0613 13.235 34.1822 13.0592 34.07C12.8831 33.9582 12.362 34.3625 11.9012 34.9693L11.0634 36.0719L10.2194 35.1468C9.46227 34.3161 9.43092 34.1644 9.91427 33.6664C10.2105 33.3612 10.7851 33.0854 11.191 33.0542C11.5972 33.0226 11.8515 32.8673 11.7568 32.709C11.6616 32.5512 11.7613 32.4216 11.978 32.4216C12.1947 32.4216 12.2736 32.2576 12.1534 32.0572C12.0333 31.8569 11.581 31.7847 11.1484 31.8965C10.6199 32.0329 10.1468 31.8551 9.70606 31.3535C9.04692 30.603 7.90055 30.3892 7.19455 30.8846C6.44769 31.4087 5.72302 33.3968 6.05559 34.009C6.43289 34.703 7.08534 34.8017 6.95781 34.1455C6.9092 33.8962 7.10754 33.6918 7.39818 33.6918C7.69481 33.6918 7.88435 33.9568 7.83009 34.2958C7.76316 34.7135 8.14434 35.0354 9.06312 35.3377C9.79449 35.5787 10.5103 35.8854 10.6541 36.0193C10.9542 36.2987 10.1947 38.5913 9.80188 38.5913C9.32206 38.5913 7.6927 41.8308 7.95375 42.266C8.12778 42.5556 8.05979 42.5988 7.74519 42.3984C7.40347 42.181 7.3404 42.2685 7.51056 42.7243C7.64162 43.076 7.59864 43.2557 7.41192 43.1366C7.04694 42.9043 6.4801 43.8153 6.28845 44.9425C6.22081 45.3418 5.95377 45.8978 5.69589 46.1779C5.39398 46.5057 5.29674 47.1531 5.42322 47.9926C5.55322 48.8549 5.52151 49.0523 5.32951 48.5743C5.06212 47.9087 4.99236 47.9439 4.45723 49.0098C3.73467 50.4488 3.71847 50.97 4.40368 50.6993C4.69432 50.5842 4.93459 50.222 4.9374 49.8939C4.94234 49.3764 4.98814 49.3695 5.28441 49.842C5.58809 50.3258 5.6279 50.3258 5.6434 49.842C5.65291 49.5426 5.96681 48.6444 6.3413 47.8459C6.71579 47.0475 7.02721 46.179 7.03391 45.9163C7.0406 45.6535 7.42425 44.9186 7.88681 44.2831C8.34937 43.6476 9.15437 42.1571 9.67506 40.9703C10.1961 39.7836 10.8877 38.5873 11.2121 38.3122C11.5366 38.0368 11.6039 37.9152 11.3615 38.0415C11.1195 38.1678 10.9211 38.0981 10.9211 37.8869C10.9211 37.6757 11.1684 37.5026 11.4704 37.5026C11.7723 37.5026 11.9149 37.3284 11.7871 37.1153C11.6595 36.9023 11.8533 36.6475 12.2183 36.5492C12.5829 36.4508 13.1036 35.8494 13.3752 35.2125C13.6468 34.5759 14.6674 33.2382 15.6433 32.2401C18.3947 29.426 19.7789 27.6361 19.5918 27.1338C19.4977 26.8815 19.6661 26.5778 19.9659 26.4591C20.3739 26.298 20.4521 26.405 20.2763 26.883C20.0642 27.4586 23.2409 24.635 23.5382 23.9836C23.6065 23.8341 23.8479 23.7114 24.074 23.7114C24.3006 23.7114 25.2521 22.9765 26.1881 22.0782C27.8774 20.4578 28.5531 20.0139 27.9623 20.9129C27.7936 21.1702 28.0514 20.9401 28.5358 20.4019C29.4553 19.3802 31.3242 18.5252 30.8275 19.3537C30.6249 19.6909 30.7363 19.6971 31.3116 19.3799C32.2163 18.8809 32.2913 18.5782 31.4423 18.8525C31.085 18.9676 31.2619 18.6667 31.8622 18.1369C32.4322 17.6335 33.036 17.3094 33.2044 17.4168C33.3725 17.5239 33.2231 17.8491 32.8726 18.1398C32.2814 18.6297 32.299 18.6497 33.1157 18.4156C33.6001 18.2769 34.2053 17.8574 34.4607 17.4836C34.7165 17.1098 35.0395 16.8764 35.1794 16.9653C35.3193 17.0546 36.5371 16.9809 37.8857 16.8024C43.3449 16.0791 43.8434 16.6804 43.904 24.0583C43.9551 30.3134 44.1298 31.7607 45.0662 33.6918C45.9103 35.4324 45.9931 35.0245 45.2448 32.811C44.8206 31.5553 44.7241 29.8819 44.8048 25.1555L44.908 19.107L43.9293 17.5838C43.3914 16.7461 42.5508 15.9041 42.0618 15.7125C40.808 15.2215 37.8484 15.3206 35.6617 15.927ZM27.479 16.777C27.479 17.1795 28.5626 17.6349 28.8402 17.3489C28.9523 17.2335 28.8106 16.9875 28.5256 16.8017C27.8668 16.3723 27.479 16.3632 27.479 16.777ZM16.8974 19.0064C16.493 19.4231 16.2915 19.9381 16.4356 20.1859C17.0426 21.2319 19.2018 23.7114 19.5055 23.7114C19.6883 23.7114 19.5425 23.3753 19.1814 22.9641C18.6469 22.3559 18.6043 22.1033 18.9527 21.6032C19.7623 20.4418 19.8042 20.0742 19.2307 19.1719C18.5324 18.0744 17.8493 18.0258 16.8974 19.0064ZM18.0315 20.5238C17.7789 20.784 17.6147 20.8055 17.6147 20.5783C17.6147 20.3718 17.7204 20.0941 17.8497 19.9613C17.9786 19.8281 18.1664 19.8038 18.2665 19.9068C18.3665 20.0099 18.2608 20.2876 18.0315 20.5238ZM13.9642 22.7892L13.0155 23.6951L14.4772 25.0644C16.2686 26.7425 17.416 27.4771 16.4078 26.3009C15.8874 25.6937 15.8258 25.4092 16.1435 25.0818C16.7847 24.4213 16.6371 23.5517 15.7356 22.6792L14.9133 21.8833L13.9642 22.7892ZM12.3366 26.9088C12.9345 27.7417 13.0025 28.1071 12.708 28.9049C12.2715 30.0873 11.7571 30.1348 10.6795 29.0921C10.2313 28.6581 9.86424 28.4828 9.86424 28.7027C9.86424 29.3309 11.6373 30.607 12.5107 30.607C13.7564 30.607 14.2394 29.7505 13.7722 28.3699C13.353 27.1309 12.4222 25.8889 11.9128 25.8889C11.7434 25.8889 11.934 26.3477 12.3366 26.9088ZM8.96378 31.6631C9.07263 31.8446 9.05678 32.2757 8.92784 32.6212C8.70907 33.2092 8.66397 33.207 8.2222 32.5846C7.96291 32.2191 7.75047 31.7879 7.75047 31.6264C7.75047 31.225 8.71858 31.2541 8.96378 31.6631ZM59.1854 32.9533C59.1854 33.0458 58.8289 33.2999 58.3928 33.5176C57.6315 33.8976 57.6272 33.8911 58.2839 33.3489C59.0026 32.7559 59.1854 32.6757 59.1854 32.9533ZM92.1715 36.9916C90.6562 39.2882 91.1026 41.1318 93.1734 41.1318C94.1225 41.1318 94.7094 40.7903 95.9794 39.5008C96.863 38.6037 97.5855 37.7149 97.5855 37.5261C97.5855 36.5648 96.6703 36.8805 95.117 38.3772C94.1662 39.2936 93.1434 40.043 92.8447 40.043C92.1362 40.043 92.1567 39.8627 93.0469 38.2306C93.5961 37.2238 93.7011 36.6954 93.4454 36.2247C93.1396 35.6618 92.9884 35.7529 92.1715 36.9916ZM5.19634 36.6584C6.06862 37.2855 6.24583 38.6458 5.53419 39.2544C5.19634 39.5429 4.96876 39.4613 4.65028 38.9358C4.15285 38.1152 3.52294 38.0009 3.52294 38.7314C3.52294 39.2105 5.50143 40.406 6.29409 40.406C6.50018 40.406 6.84895 40.059 7.06949 39.6347C7.69974 38.4211 6.28106 36.0625 4.93212 36.0813C4.57102 36.0864 4.65451 36.2693 5.19634 36.6584ZM108.287 37.7337C106.929 41.7633 105.902 42.6485 106.096 39.621C106.171 38.4512 106.067 37.6953 105.82 37.6093C105.23 37.4049 105.056 38.2128 105.297 40.0347C105.478 41.4015 105.671 41.7168 106.511 42.021C107.635 42.4278 107.856 42.1879 108.906 39.4195C109.398 38.1246 109.412 37.8248 109.001 37.4732C108.621 37.1491 108.465 37.2061 108.287 37.7337ZM1.5279 40.2328C1.63535 42.0769 1.57898 42.254 0.822255 42.4496C0.369909 42.5665 0 42.8078 0 42.9856C0 43.3674 1.1823 43.4222 1.53671 43.0568C2.02675 42.5523 2.91101 42.6521 3.99784 43.3348C5.47113 44.2602 5.96998 44.2283 4.80353 43.2829C4.29306 42.8695 3.87524 42.3059 3.87524 42.0308C3.87524 41.7557 3.61419 41.3801 3.29466 41.1961C2.97548 41.0121 2.69329 40.4731 2.66792 39.9988C2.64221 39.5241 2.49777 38.9318 2.34663 38.6821C1.74949 37.6953 1.41658 38.3253 1.5279 40.2328Z" fill="black"/>
</svg>
