<svg width="62" height="63" viewBox="0 0 62 63" fill="none" xmlns="http://www.w3.org/2000/svg">
<ellipse cx="31" cy="31.5" rx="31" ry="31.5" fill="#FFBE4C"/>
<path d="M15.3477 35.3833C15.7418 35.2777 16.025 35.0983 16.1974 34.8451C16.3754 34.5821 16.4188 34.2805 16.3277 33.9405C16.131 33.2064 15.6076 32.9533 14.7576 33.181C14.5644 33.2328 14.3898 33.292 14.2337 33.3587C14.1683 33.3928 14.1449 33.4446 14.1636 33.5141L14.6823 35.4498C14.7009 35.5194 14.745 35.5448 14.8145 35.5262L15.3477 35.3833ZM18.9594 36.9003L20.0303 38.4395C20.1258 38.5796 20.1448 38.7277 20.0872 38.8839C20.0276 39.0324 19.9167 39.1284 19.7544 39.1719L18.6996 39.4545C18.4987 39.5084 18.3016 39.4991 18.1083 39.4266C17.9149 39.3542 17.7664 39.2325 17.6626 39.0615L16.7302 37.6218C16.5727 37.3741 16.4128 37.2099 16.2503 37.1292C16.0879 37.0485 15.8985 37.0371 15.6822 37.0951L15.2649 37.2069C15.1953 37.2255 15.1699 37.2696 15.1885 37.3392L15.7755 39.5299C15.8231 39.7076 15.7989 39.8798 15.7027 40.0463C15.6065 40.2129 15.4696 40.32 15.2918 40.3676L14.353 40.6192C14.1752 40.6668 14.0031 40.6426 13.8365 40.5464C13.67 40.4502 13.5629 40.3133 13.5152 40.1355L11.6176 33.0534C11.5679 32.8679 11.5824 32.6901 11.661 32.52C11.7453 32.34 11.8781 32.2175 12.0594 32.1523C12.7981 31.8799 13.5808 31.6328 14.4076 31.4113C16.7259 30.7901 18.1179 31.3489 18.5838 33.0875C18.7142 33.5744 18.6847 34.0668 18.4951 34.5648C18.3133 35.0608 18.0066 35.4618 17.5752 35.7679C17.5674 35.77 17.5646 35.7749 17.5667 35.7826C17.5708 35.7981 17.5768 35.8048 17.5845 35.8027C17.8515 35.872 18.0853 35.9874 18.286 36.1489C18.4944 36.3084 18.7188 36.5589 18.9594 36.9003ZM25.0092 28.6949C25.1869 28.6472 25.359 28.6715 25.5256 28.7677C25.6922 28.8638 25.7993 29.0008 25.8469 29.1785L25.9898 29.7117C26.0374 29.8894 26.0131 30.0616 25.9169 30.2282C25.8208 30.3947 25.6838 30.5018 25.5061 30.5494L23.0256 31.2141C22.9561 31.2327 22.9296 31.273 22.9461 31.3348L23.266 32.5287C23.2847 32.5982 23.3288 32.6237 23.3983 32.605L25.647 32.0025C25.8247 31.9549 25.9969 31.9791 26.1634 32.0753C26.33 32.1715 26.4371 32.3084 26.4847 32.4862L26.5965 32.9034C26.6441 33.0812 26.6199 33.2533 26.5237 33.4199C26.4275 33.5864 26.2906 33.6935 26.1128 33.7412L23.8642 34.3437C23.7946 34.3623 23.7681 34.4026 23.7847 34.4644L24.1667 35.8901C24.1854 35.9596 24.2294 35.9851 24.299 35.9664L26.7795 35.3018C26.9572 35.2542 27.1294 35.2784 27.2959 35.3746C27.4625 35.4708 27.5696 35.6077 27.6172 35.7855L27.7601 36.3186C27.8077 36.4964 27.7834 36.6685 27.6873 36.8351C27.5911 37.0017 27.4542 37.1088 27.2764 37.1564L23.0341 38.2931C22.8563 38.3407 22.6842 38.3165 22.5176 38.2203C22.3511 38.1241 22.244 37.9872 22.1963 37.8094L20.2832 30.6693C20.2355 30.4916 20.2598 30.3194 20.356 30.1529C20.4521 29.9863 20.5891 29.8792 20.7668 29.8316L25.0092 28.6949ZM33.079 26.5326C33.2568 26.4849 33.4289 26.5092 33.5955 26.6054C33.762 26.7015 33.8691 26.8385 33.9167 27.0162L34.0596 27.5494C34.1072 27.7271 34.083 27.8993 33.9868 28.0658C33.8906 28.2324 33.7537 28.3395 33.576 28.3871L31.0955 29.0518C31.0259 29.0704 30.9994 29.1106 31.016 29.1725L31.3359 30.3663C31.3545 30.4359 31.3986 30.4613 31.4682 30.4427L33.7168 29.8402C33.8946 29.7926 34.0667 29.8168 34.2333 29.913C34.3998 30.0092 34.5069 30.1461 34.5546 30.3238L34.6664 30.7411C34.714 30.9189 34.6897 31.091 34.5936 31.2576C34.4974 31.4241 34.3604 31.5312 34.1827 31.5788L31.934 32.1814C31.8645 32.2 31.838 32.2402 31.8546 32.3021L32.2366 33.7278C32.2552 33.7973 32.2993 33.8228 32.3688 33.8041L34.8493 33.1395C35.0271 33.0919 35.1992 33.1161 35.3658 33.2123C35.5324 33.3085 35.6394 33.4454 35.6871 33.6231L35.8299 34.1563C35.8776 34.3341 35.8533 34.5062 35.7571 34.6728C35.661 34.8393 35.524 34.9464 35.3463 34.9941L31.1039 36.1308C30.9262 36.1784 30.7541 36.1541 30.5875 36.058C30.4209 35.9618 30.3138 35.8249 30.2662 35.6471L28.353 28.507C28.3054 28.3293 28.3297 28.1571 28.4258 27.9906C28.522 27.824 28.6589 27.7169 28.8367 27.6693L33.079 26.5326ZM43.1355 30.8571C43.3132 30.8095 43.4854 30.8338 43.6519 30.9299C43.8185 31.0261 43.9256 31.163 43.9732 31.3408L44.1316 31.9319C44.1792 32.1096 44.155 32.2818 44.0588 32.4484C43.9626 32.6149 43.8257 32.722 43.648 32.7696L39.1738 33.9685C38.9961 34.0161 38.8239 33.9918 38.6573 33.8957C38.4908 33.7995 38.3837 33.6626 38.3361 33.4848L36.4229 26.3447C36.3752 26.167 36.3995 25.9948 36.4957 25.8283C36.5919 25.6617 36.7288 25.5546 36.9065 25.507L37.9613 25.2243C38.1391 25.1767 38.3112 25.201 38.4778 25.2972C38.6443 25.3933 38.7514 25.5303 38.7991 25.708L40.3489 31.492C40.3675 31.5615 40.4116 31.587 40.4811 31.5683L43.1355 30.8571ZM46.818 22.8512C46.9958 22.8036 47.164 22.8289 47.3229 22.9271C47.4894 23.0233 47.5888 23.1623 47.621 23.3442L48.5106 27.777C48.5525 27.9645 48.5216 28.1426 48.4177 28.3112C48.3194 28.4701 48.1776 28.5743 47.9921 28.624L47.2271 28.829C47.0417 28.8787 46.8667 28.8593 46.7022 28.7709C46.5356 28.6747 46.4198 28.536 46.3546 28.3547L44.9087 24.0709C44.8533 23.8953 44.8698 23.7252 44.9583 23.5607C45.0467 23.3962 45.1798 23.2902 45.3575 23.2425L46.818 22.8512ZM48.3565 29.5202C48.5343 29.4726 48.7064 29.4969 48.873 29.5931C49.0395 29.6892 49.1466 29.8262 49.1942 30.0039L49.3371 30.5371C49.3847 30.7148 49.3605 30.887 49.2643 31.0535C49.1681 31.2201 49.0312 31.3272 48.8535 31.3748L47.8566 31.6419C47.6789 31.6896 47.5067 31.6653 47.3402 31.5691C47.1736 31.4729 47.0665 31.336 47.0189 31.1583L46.876 30.6251C46.8284 30.4473 46.8527 30.2752 46.9488 30.1086C47.045 29.9421 47.182 29.835 47.3597 29.7873L48.3565 29.5202Z" fill="white"/>
</svg>
