<svg width="24" height="20" viewBox="0 0 24 20" fill="none" xmlns="http://www.w3.org/2000/svg">
<path d="M20.1359 0.00515485C16.9665 -0.110081 14.8256 1.70703 13.6961 5.42791C14.277 5.16791 14.8417 5.05172 15.3884 5.05172C16.5493 5.05172 17.0627 5.71552 16.9255 7.03454C16.8569 7.83357 16.3465 8.99545 15.3903 10.524C14.4294 12.0525 13.7113 12.8182 13.2332 12.8182C11.7837 12.8182 10.9123 5.88123 10.6171 3.98698C10.2066 1.3537 9.11234 0.122295 7.33427 0.294673C5.70192 0.449908 2.85341 3.3889 0.615356 5.38124L1.69057 6.78312C2.71436 6.05742 3.31149 5.69361 3.48197 5.69361C5.26384 5.69361 6.12668 11.7573 7.51046 16.2667C8.43901 18.7553 9.55233 20 10.8942 20C13.0504 20 15.677 17.9581 18.7893 13.8725C21.794 9.96115 23.3502 6.87835 23.4502 4.62983L23.4625 4.6203C23.5902 1.60608 22.4902 0.0632489 20.1359 0.00515485Z" fill="black"/>
</svg>
